<svg xmlns="http://www.w3.org/2000/svg" viewBox="0 0 485 485"><g fill="#fff"><path d="M177.506 400c70.782 0 107.829-39.043 107.829-77.631.012-28.527-16.714-42.618-34.472-57.583l-14.981-11.643c-4.636-3.843-10.402-8.609-10.402-17.458 0-8.69 5.767-14.424 10.85-19.491l.541-.541c16.169-12.74 34.517-27.193 34.517-58.441 0-31.418-19.633-47.656-29.088-55.456h24.94c.301 0 .606-.094.858-.252l21.475-13.501a1.628 1.628 0 0 0 .699-1.83A1.63 1.63 0 0 0 288.719 85h-75.138c-33.472 0-56.647 7.34-77.505 24.574-16.392 14.156-26.193 34.712-26.193 55.012 0 31.276 23.842 64.524 68.034 64.524 4.258 0 8.963-.443 13.107-.826l-.602 1.476c-1.781 4.258-3.465 8.275-3.465 14.534 0 12.2 5.876 19.731 11.582 27.006l.716.919-1.273.098c-18.251 1.24-52.215 3.574-77.025 18.824-29.308 17.425-31.581 42.76-31.581 50.1 0 29.248 27.241 58.759 88.13 58.759zm19.698-182.406c-36.221 0-51.247-47.607-51.247-73.104 0-12.96 2.94-22.907 9.007-30.418 6.576-8.231 17.856-13.55 28.718-13.55 33.248 0 51.629 44.7 51.629 75.581 0 4.876 0 19.695-10.232 29.991-6.891 6.877-18.09 11.5-27.875 11.5zm-36.521 72.751c18.698-6.287 42.841-6.608 43.081-6.608 4.083 0 6.149 0 9.402.415 30.198 21.492 44.72 32.772 44.72 54.264 0 27.368-23.098 44.366-60.287 44.366-43.142 0-72.133-20.142-72.133-50.149 0-19.584 11.85-33.817 35.217-42.288zm134.07-37.709h39.381v39.698c0 .891.728 1.619 1.618 1.619h17.027a1.63 1.63 0 0 0 1.639-1.619v-39.698h39.584c.891 0 1.623-.732 1.623-1.635v-17.25a1.61 1.61 0 0 0-1.623-1.623h-39.584V192.67a1.63 1.63 0 0 0-1.639-1.619h-17.027c-.891 0-1.618.728-1.618 1.619v39.458h-39.381a1.63 1.63 0 0 0-1.635 1.623v17.25c0 .903.728 1.635 1.635 1.635z"/><path d="M0 0v485h485V0H0zm455 455H30V30h425v425z"/></g></svg>