<svg xmlns="http://www.w3.org/2000/svg" viewBox="0 0 346.147 346.147"><path fill="#fff" d="M296.7 160.136l-10.336-72.967a7.5 7.5 0 0 0-6.17-6.343 7.512 7.512 0 0 0-7.918 3.95l-4.172 8.085-13.732-41.584a7.505 7.505 0 0 0-6.23-5.096 7.495 7.495 0 0 0-7.016 3.148l-12.898-27.323a7.5 7.5 0 0 0-12.459-1.699l-3.441 3.986-9.778-20.075a7.501 7.501 0 0 0-6.607-4.215c-2.805-.084-5.43 1.482-6.756 3.972-.039.075-2.676 5.026-6.564 12.491-1.758-3.894-2.824-6.246-2.855-6.317a7.5 7.5 0 0 0-6.832-4.404h-.051a7.499 7.499 0 0 0-6.82 4.497l-2.638 6.037c-3.836-7.36-6.427-12.23-6.468-12.304-1.326-2.489-3.939-4.004-6.756-3.972a7.5 7.5 0 0 0-6.605 4.215l-9.777 20.076-3.441-3.986a7.502 7.502 0 0 0-12.459 1.699l-12.9 27.323a7.479 7.479 0 0 0-7.014-3.148 7.498 7.498 0 0 0-6.23 5.096L78.043 92.862a5079.69 5079.69 0 0 0-4.174-8.085 7.508 7.508 0 0 0-7.918-3.95 7.503 7.503 0 0 0-6.17 6.343l-10.336 72.967c-1.35 9.534.664 19.009 5.674 26.679 5.213 7.983 13.012 13.078 21.955 14.346.771.11 2.084.192 3.594.253-1.887 18.214 14.837 36.12 39.679 41.682a67.08 67.08 0 0 0 5.691 1.004c2.91 7.314 11.234 12.587 21.779 15.725v55.431a7.502 7.502 0 0 0 3.375 6.264l35.511 23.393a7.5 7.5 0 0 0 11.625-6.264v-78.903c10.395-3.142 18.582-8.373 21.484-15.6a67.32 67.32 0 0 0 5.986-1.049c24.84-5.561 41.564-23.468 39.678-41.682 1.512-.061 2.82-.143 3.594-.253 8.945-1.268 16.742-6.362 21.957-14.346 5.011-7.672 7.025-17.147 5.673-26.681zm-38.205-48.603c-2.902 5.652-6.004 11.705-9.049 17.664a7.496 7.496 0 0 0-5.369-4.746 7.503 7.503 0 0 0-7.551 2.655c-.906 1.146-12.719 16.068-25.975 33.136a810.96 810.96 0 0 0-8.189-17.073c.234-.483 22.703-39.513 42.795-71.957 0-.001 13.287 40.19 13.338 40.321zm-80.127 77.356c-1.432-1.505-3.447-2.311-5.502-2.33a7.503 7.503 0 0 0-5.457 2.43l-5.382 5.866c-4.625-6.234-10.191-13.56-15.951-21.053l26.929-55.301c7.648 14.703 19.883 38.663 27.164 55.171-5.811 7.561-11.432 14.956-16.092 21.237-3.41-3.603-5.66-5.97-5.709-6.02zm53.323-124.407a5919.178 5919.178 0 0 0-16.133 26.23c-2.828-6.678-7.137-16.549-13.703-31.338l17.731-20.535 12.105 25.643zm-36.137-40.37l6.104 12.538-6.551 7.588a7652.283 7652.283 0 0 0-4.623-10.316 2022.67 2022.67 0 0 1 5.07-9.81zm-22.506 7.602c.707 1.571 30.359 68.021 32.81 74.936-5.373 8.877-9.164 15.254-11.822 19.916a1852.42 1852.42 0 0 0-14.666-28.205 7.473 7.473 0 0 0-6.756-3.971 7.504 7.504 0 0 0-6.606 4.216l-13.746 28.229c-2.664-4.683-6.494-11.129-11.969-20.172l32.755-74.949zm-22.455-7.602c1.541 2.962 3.268 6.3 5.098 9.866l-4.541 10.389-6.662-7.717 6.105-12.538zM126.56 38.839l17.932 20.766-13.723 31.402a5745.636 5745.636 0 0 0-16.314-26.525l12.105-25.643zm-25.572 32.372c20.092 32.444 42.693 71.851 43.065 72.483l-8.211 16.864a5048.176 5048.176 0 0 0-26.221-33.453 7.496 7.496 0 1 0-12.922 2.091 8540.269 8540.269 0 0 0-9.049-17.664c.053-.13 13.338-40.321 13.338-40.321zm-33.31 107.402c-3.021-4.625-4.221-10.44-3.381-16.373l7.033-49.647c6.234 12.122 14.033 27.337 20.179 39.481l-7.707 34.432c-2.23-.053-4.087-.133-4.623-.196-4.601-.653-8.687-3.387-11.501-7.697zm28.134 22.916l10.914-48.763.012-.055.875-3.913c6.203 7.899 38.768 50.096 44.084 57.316l-21.441 23.369a51.565 51.565 0 0 1-6.633-1.027c-17.467-3.909-30.203-16.241-27.811-26.927zm87.517 123.196l-20.511-13.512v-48.491c3.331.345 6.726.525 10.117.525a98.52 98.52 0 0 0 10.395-.553v62.031zm15.281-80.995c-6.637 2.87-15.996 4.517-25.676 4.517-9.679 0-19.037-1.646-25.673-4.517-3.189-1.379-5.129-2.771-6.207-3.829l31.974-34.85c1.887 1.993 27.852 29.751 32.047 34.584-1.011 1.084-3 2.597-6.465 4.095zm23.915-15.274c-2.125.476-4.26.801-6.385 1.003-3.209-3.725-20.242-22.001-21.608-23.457 11.92-16.185 32.047-41.981 44-57.204l11.803 52.731c2.393 10.686-10.344 23.018-27.81 26.927zm55.945-49.843c-2.816 4.31-6.9 7.044-11.465 7.691-.557.065-2.426.145-4.662.198l-7.705-34.429c6.145-12.145 13.945-27.359 20.178-39.481l7.033 49.647c.842 5.934-.36 11.749-3.379 16.374z"/></svg>