<svg xmlns="http://www.w3.org/2000/svg" viewBox="0 0 485 485"><g fill="#fff"><path d="M85 341.458c28.599 18.34 62.568 29.037 99.065 29.037 118.871 0 183.873-98.473 183.873-183.876 0-2.799-.063-5.587-.186-8.36 12.629-9.111 23.585-20.493 32.249-33.453a129.204 129.204 0 0 1-37.118 10.178c13.344-8 23.591-20.662 28.415-35.754a129.408 129.408 0 0 1-41.038 15.681c-11.788-12.56-28.584-20.406-47.173-20.406-35.688 0-64.626 28.935-64.626 64.623 0 5.065.574 9.997 1.677 14.729-53.71-2.698-101.33-28.424-133.203-67.526-5.564 9.547-8.751 20.647-8.751 32.492 0 22.419 11.406 42.201 28.748 53.79a64.375 64.375 0 0 1-29.271-8.084c-.006.271-.006.541-.006.814 0 31.311 22.278 57.429 51.841 63.368a64.844 64.844 0 0 1-17.027 2.268c-4.164 0-8.213-.406-12.161-1.163 8.225 25.676 32.093 44.361 60.373 44.88-22.119 17.336-49.984 27.668-80.262 27.668-5.22.001-10.363-.305-15.419-.906z"/><path d="M0 0v485h485V0H0zm455 455H30V30h425v425z"/></g></svg>