<svg xmlns="http://www.w3.org/2000/svg" width="380" height="380" viewBox="0 0 380 380"><g fill="#fff"><path d="M190 0C85.232 0 0 85.234 0 190s85.232 190 190 190c104.767 0 190-85.232 190-190C380 85.233 294.767 0 190 0zm79.9 316.893l-8.188-14.084a5.322 5.322 0 0 0-4.587-2.635 5.2 5.2 0 0 0-2.648.719 5.254 5.254 0 0 0-2.458 3.222 5.28 5.28 0 0 0 .542 4.017l8.199 14.102a148.923 148.923 0 0 1-60.76 17.43V319.77c0-5.521-4.479-10-10-10-5.522 0-10 4.479-10 10v19.891a148.887 148.887 0 0 1-59.949-17.002l8.111-14.149a5.258 5.258 0 0 0 .517-4.018 5.257 5.257 0 0 0-2.475-3.205 5.212 5.212 0 0 0-2.624-.704 5.321 5.321 0 0 0-4.603 2.663l-8.102 14.133a151.212 151.212 0 0 1-45.447-43.908l17.188-9.923c4.782-2.761 6.421-8.877 3.659-13.66-2.761-4.781-8.877-6.421-13.659-3.658l-17.212 9.937c-9.056-18.349-14.466-38.8-15.284-60.41l16.33-.05a5.256 5.256 0 0 0 3.737-1.561 5.259 5.259 0 0 0 1.538-3.748 5.303 5.303 0 0 0-5.293-5.277l-16.348.05c.699-21.949 6.136-42.72 15.319-61.327l17.212 9.937a9.996 9.996 0 0 0 13.659-3.66c2.762-4.783 1.123-10.899-3.659-13.66l-17.188-9.923a151.174 151.174 0 0 1 44.671-43.424l8.188 14.084a5.228 5.228 0 0 0 1.935 1.929 5.344 5.344 0 0 0 5.299-.013 5.255 5.255 0 0 0 2.458-3.223 5.256 5.256 0 0 0-.541-4.013l-8.198-14.102a148.905 148.905 0 0 1 60.76-17.43v19.889c0 5.522 4.478 10 10 10 5.521 0 10-4.478 10-10V40.346a148.882 148.882 0 0 1 59.947 17.001l-8.111 14.149a5.3 5.3 0 0 0 4.583 7.927c1.897 0 3.66-1.02 4.6-2.661l8.104-14.135a151.187 151.187 0 0 1 45.449 43.909l-17.188 9.923c-4.783 2.761-6.421 8.877-3.659 13.66a9.998 9.998 0 0 0 13.659 3.66l17.212-9.938c9.058 18.348 14.466 38.8 15.284 60.41l-16.33.05a5.248 5.248 0 0 0-3.735 1.561 5.257 5.257 0 0 0-1.538 3.747 5.315 5.315 0 0 0 2.668 4.583 5.274 5.274 0 0 0 2.623.693h.017l16.333-.05c-.699 21.949-6.136 42.721-15.319 61.327l-17.212-9.938c-4.784-2.762-10.896-1.122-13.659 3.66-2.762 4.782-1.124 10.898 3.659 13.659l17.188 9.923a151.255 151.255 0 0 1-44.674 43.427z"/><path d="M263.906 135.775l-64.142 35.588a20.941 20.941 0 0 0-9.767-2.412c-3.528 0-6.846.878-9.766 2.412l-64.141-35.588c-6.064-3.366-13.711-1.176-17.078 4.889-3.364 6.065-1.176 13.711 4.891 17.077l65.443 36.311c1.891 9.686 10.412 16.997 20.65 16.997s18.76-7.312 20.65-16.997l65.441-36.311c6.066-3.365 8.254-11.011 4.891-17.077-3.36-6.066-11.005-8.255-17.072-4.889z"/></g></svg>