<svg xmlns="http://www.w3.org/2000/svg" viewBox="0 0 25.975 25.975"><path d="M4.367 18.605c-2.49.617-4.313-.459-4.313-.459s-.606-3.124 2.281-5.654a8.14 8.14 0 0 0 2.963 1.221 7.844 7.844 0 0 0-.931 4.892zm4.838-7.077a7.292 7.292 0 0 0 2.079-1.082 12.068 12.068 0 0 1-.103-2.701 19.365 19.365 0 0 1-4.003-2.611c-.039.012-.075.02-.115.033-4.164 1.402-4.48 5.05-4.48 5.05s2.46 2.714 6.622 1.311zm-2.701 7.943s2.845 1.148 5.637-.987a9.364 9.364 0 0 1 .476-2.328c.246-.731.554-1.36.894-1.919-.247-.075-.428-.139-.496-.162l-.811-.303-.303-.811c-.023-.068-.087-.248-.162-.496a9.475 9.475 0 0 1-1.918.894 9.565 9.565 0 0 1-2.329.478c-2.136 2.79-.988 5.634-.988 5.634zm5.756 1.207a7.835 7.835 0 0 1-4.891.931c-.616 2.491.46 4.313.46 4.313s3.124.607 5.655-2.281a8.192 8.192 0 0 1-1.224-2.963zm8.582-1.882a19.27 19.27 0 0 1-2.611-4.003c-.967.081-1.899.016-2.702-.104a7.305 7.305 0 0 0-1.081 2.081c-1.403 4.163 1.311 6.622 1.311 6.622s3.647-.316 5.051-4.48c.013-.039.019-.076.032-.116zM5.493 21.107l-.443-.18-.182-.445a8.347 8.347 0 0 1-3.654.111C.133 22.934.968 25.009.968 25.009s2.074.834 4.416-.247a8.333 8.333 0 0 1 .109-3.655zm16.88-17.504c-7.529-7.528-14.986-.837-14.986-.837s2.4 2.546 5.909 3.827c-.754 2.669.375 5.712.375 5.712s3.043 1.129 5.712.376c1.282 3.509 3.826 5.907 3.826 5.907s6.692-7.458-.836-14.985z" fill="#fff"/></svg>