<?xml version="1.0" encoding="iso-8859-1"?>
<!-- Generator: Adobe Illustrator 18.1.1, SVG Export Plug-In . SVG Version: 6.00 Build 0)  -->
<svg version="1.1" id="Capa_1" xmlns="http://www.w3.org/2000/svg" xmlns:xlink="http://www.w3.org/1999/xlink" x="0px" y="0px"
	 viewBox="0 0 25.975 25.975" style="enable-background:new 0 0 25.975 25.975;" xml:space="preserve">
<g>
	<g>
		<path style="fill:#fff;" d="M4.367,18.605c-2.49,0.617-4.313-0.459-4.313-0.459s-0.606-3.124,2.281-5.654
			c0.698,0.466,1.696,0.975,2.963,1.221C4.256,15.574,4.205,17.376,4.367,18.605z M9.205,11.528
			c0.844-0.284,1.521-0.663,2.079-1.082c-0.116-0.803-0.183-1.735-0.103-2.701C9.46,6.915,8.086,5.899,7.178,5.134
			c-0.039,0.012-0.075,0.02-0.115,0.033c-4.164,1.402-4.48,5.05-4.48,5.05S5.043,12.931,9.205,11.528z M6.504,19.471
			c0,0,2.845,1.148,5.637-0.987c0.053-0.724,0.196-1.499,0.476-2.328c0.246-0.731,0.554-1.36,0.894-1.919
			c-0.247-0.075-0.428-0.139-0.496-0.162l-0.811-0.303l-0.303-0.811c-0.023-0.068-0.087-0.248-0.162-0.496
			c-0.557,0.34-1.185,0.646-1.918,0.894c-0.83,0.278-1.604,0.423-2.329,0.478C5.356,16.627,6.504,19.471,6.504,19.471z
			 M12.26,20.678c-1.858,1.043-3.659,1.092-4.891,0.931c-0.616,2.491,0.46,4.313,0.46,4.313s3.124,0.607,5.655-2.281
			C13.018,22.943,12.509,21.945,12.26,20.678z M20.842,18.796c-0.766-0.907-1.781-2.281-2.611-4.003
			c-0.967,0.081-1.899,0.016-2.702-0.104c-0.419,0.558-0.797,1.237-1.081,2.081c-1.403,4.163,1.311,6.622,1.311,6.622
			s3.647-0.316,5.051-4.48C20.823,18.873,20.829,18.836,20.842,18.796z M5.493,21.107l-0.443-0.18l-0.182-0.445
			c-1.407,0.353-2.671,0.307-3.654,0.111c-1.081,2.341-0.246,4.416-0.246,4.416s2.074,0.834,4.416-0.247
			C5.186,23.779,5.141,22.516,5.493,21.107z M22.373,3.603C14.844-3.925,7.387,2.766,7.387,2.766s2.4,2.546,5.909,3.827
			c-0.754,2.669,0.375,5.712,0.375,5.712s3.043,1.129,5.712,0.376c1.282,3.509,3.826,5.907,3.826,5.907S29.901,11.13,22.373,3.603z"
			/>
	</g>
	<path style="fill:none;stroke:#fff;stroke-width:2;stroke-linecap:round;stroke-linejoin:round;stroke-miterlimit:10;" d="
		M24.975,1c-1.399,2.648-3.482,3.482-3.482,3.482"/>
</g>
<g>
</g>
<g>
</g>
<g>
</g>
<g>
</g>
<g>
</g>
<g>
</g>
<g>
</g>
<g>
</g>
<g>
</g>
<g>
</g>
<g>
</g>
<g>
</g>
<g>
</g>
<g>
</g>
<g>
</g>
</svg>
